# Blender 5.0.1
# www.blender.org
mtllib rotate.mtl
o mesh_591.001
v -0.000001 11.785600 -13.004800
v -13.004800 11.785600 0.000001
v -2.537111 11.785600 -12.754915
v -4.976722 11.785600 -12.014867
v -7.225080 11.785600 -10.813094
v -9.195782 11.785600 -9.195780
v -10.813096 11.785600 -7.225078
v -12.014867 11.785600 -4.976720
v -12.754915 11.785600 -2.537109
v 0.000001 11.785600 13.004800
v -12.754915 11.785600 2.537111
v -12.014867 11.785600 4.976722
v -10.813094 11.785600 7.225080
v -9.195780 11.785600 9.195782
v -7.225078 11.785600 10.813096
v -4.976720 11.785600 12.014867
v -2.537109 11.785600 12.754915
v 13.004800 11.785600 -0.000001
v 12.754915 11.785600 -2.537111
v 12.014867 11.785600 -4.976722
v 10.813094 11.785600 -7.225080
v 9.195780 11.785600 -9.195782
v 7.225078 11.785600 -10.813096
v 4.976720 11.785600 -12.014867
v 2.537109 11.785600 -12.754915
v 12.754915 -11.785600 2.537109
v 12.014867 -11.785600 4.976720
v 10.813096 -11.785600 7.225078
v 9.195782 -11.785600 9.195780
v 7.225080 -11.785600 10.813094
v 4.976722 -11.785600 12.014867
v 2.537111 -11.785600 12.754915
v 13.004800 -11.785600 -0.000001
v 2.537109 -11.785600 -12.754915
v 4.976720 -11.785600 -12.014867
v 7.225078 -11.785600 -10.813096
v 9.195780 -11.785600 -9.195782
v 10.813094 -11.785600 -7.225080
v 12.014867 -11.785600 -4.976722
v 12.754915 -11.785600 -2.537111
v 2.537111 11.785600 12.754915
v 4.976722 11.785600 12.014867
v 7.225080 11.785600 10.813094
v 9.195782 11.785600 9.195780
v 10.813096 11.785600 7.225078
v 12.014867 11.785600 4.976720
v 12.754915 11.785600 2.537109
v 0.000001 -11.785600 13.004800
v -2.537109 -11.785600 12.754915
v -4.976720 -11.785600 12.014867
v -7.225078 -11.785600 10.813096
v -9.195780 -11.785600 9.195782
v -10.813094 -11.785600 7.225080
v -12.014867 -11.785600 4.976722
v -12.754915 -11.785600 2.537111
v -13.004800 -11.785600 0.000001
v -0.000001 -11.785600 -13.004800
v -12.754915 -11.785600 -2.537109
v -12.014867 -11.785600 -4.976720
v -10.813096 -11.785600 -7.225078
v -9.195782 -11.785600 -9.195780
v -7.225080 -11.785600 -10.813094
v -4.976722 -11.785600 -12.014867
v -2.537111 -11.785600 -12.754915
vn -0.0000 -0.0000 -1.0000
vn -0.1951 -0.0000 -0.9808
vn -0.3827 -0.0000 -0.9239
vn -0.5556 -0.0000 -0.8315
vn -0.7071 -0.0000 -0.7071
vn -0.8315 -0.0000 -0.5556
vn -0.9239 -0.0000 -0.3827
vn -0.9808 -0.0000 -0.1951
vn -1.0000 -0.0000 -0.0000
vn 1.0000 -0.0000 -0.0000
vn 0.9808 -0.0000 -0.1951
vn 0.9239 -0.0000 -0.3827
vn 0.8315 -0.0000 -0.5556
vn 0.7071 -0.0000 -0.7071
vn 0.5556 -0.0000 -0.8315
vn 0.3827 -0.0000 -0.9239
vn 0.1951 -0.0000 -0.9808
vn -0.9808 -0.0000 0.1951
vn -0.9239 -0.0000 0.3827
vn -0.8315 -0.0000 0.5556
vn -0.7071 -0.0000 0.7071
vn -0.5556 -0.0000 0.8315
vn -0.3827 -0.0000 0.9239
vn -0.1951 -0.0000 0.9808
vn -0.0000 -0.0000 1.0000
vn 0.9808 -0.0000 0.1951
vn 0.9239 -0.0000 0.3827
vn 0.8315 -0.0000 0.5556
vn 0.7071 -0.0000 0.7071
vn 0.5556 -0.0000 0.8315
vn 0.3827 -0.0000 0.9239
vn 0.1951 -0.0000 0.9808
vn -0.0000 1.0000 -0.0000
vn -0.0000 -1.0000 -0.0000
vt -48.000000 -54.000000
vt -49.560722 -39.500000
vt -48.000000 -39.500000
vt -49.560722 -54.000000
vt -51.061466 -39.500000
vt -51.061466 -54.000000
vt -52.444557 -39.500000
vt -52.444557 -54.000000
vt -56.000000 -39.500000
vt 76.000000 -54.000000
vt 79.555435 -39.500000
vt 76.000000 -39.500000
vt 79.555435 -54.000000
vt 80.938538 -39.500000
vt 80.938538 -54.000000
vt 82.439278 -39.500000
vt 82.439278 -54.000000
vt 84.000000 -39.500000
vt 84.000000 -54.000000
vt -40.000000 -54.000000
vt -43.555439 -39.500000
vt -40.000000 -39.500000
vt -43.555435 -54.000000
vt -44.938530 -39.500000
vt -44.938530 -54.000000
vt -46.439278 -39.500000
vt -46.439278 -54.000000
vt 85.560722 -39.500000
vt 85.560722 -54.000000
vt 87.061462 -39.500000
vt 87.061462 -54.000000
vt 88.444565 -39.500000
vt 88.444565 -54.000000
vt 92.000000 -39.500000
vt -56.000000 -54.000000
vt 92.000000 -54.000000
vt -43.555439 -54.000000
vt -43.555435 -39.500000
vt 85.560738 -39.153725
vt 76.153717 -45.439278
vt 82.439285 -54.846283
vt 85.560738 -54.846287
vt 76.153717 -48.560722
vt 82.439285 -39.153721
vt 84.000000 -55.000000
vt 85.560730 -54.846291
vt 87.061470 -54.391037
vt 88.444557 -53.651756
vt 89.656853 -52.656857
vt 90.651756 -51.444561
vt 91.391029 -50.061470
vt 91.846283 -48.560722
vt 92.000000 -47.000000
vt 91.846283 -45.439281
vt 91.391037 -43.938538
vt 90.651756 -42.555439
vt 89.656853 -41.343147
vt 88.444557 -40.348244
vt 87.061462 -39.608963
vt 84.000000 -39.000000
vt 82.439278 -39.153717
vt 80.938538 -39.608971
vt 79.555443 -40.348244
vt 78.343147 -41.343147
vt 77.348244 -42.555439
vt 76.608963 -43.938538
vt 76.000000 -47.000000
vt 76.153725 -48.560726
vt 76.608963 -50.061470
vt 77.348244 -51.444557
vt 78.343155 -52.656860
vt 79.555435 -53.651756
vt 80.938530 -54.391037
vt 85.560730 -39.153721
vt 87.061470 -39.608963
vt 88.444557 -40.348240
vt 89.656853 -41.343151
vt 91.391029 -43.938530
vt 91.391037 -50.061474
vt 90.651756 -51.444557
vt 89.656853 -52.656853
vt 87.061462 -54.391037
vt 82.439278 -54.846283
vt 80.938538 -54.391045
vt 79.555443 -53.651756
vt 78.343147 -52.656857
vt 76.153725 -45.439281
vt 76.608963 -43.938530
vt 78.343155 -41.343151
vt 79.555435 -40.348244
vt 80.938530 -39.608963
s 1
usemtl materials/dev/reflectivity_30.vmat
f 57/1/1 3/2/2 1/3/1
f 64/4/2 4/5/3 3/2/2
f 63/6/3 5/7/4 4/5/3
f 62/8/4 6/9/5 5/7/4
f 61/10/5 7/11/6 6/12/5
f 60/13/6 8/14/7 7/11/6
f 59/15/7 9/16/8 8/14/7
f 58/17/8 2/18/9 9/16/8
f 33/19/10 19/16/11 18/18/10
f 40/17/11 20/14/12 19/16/11
f 39/15/12 21/11/13 20/14/12
f 38/13/13 22/12/14 21/11/13
f 37/20/14 23/21/15 22/22/14
f 36/23/15 24/24/16 23/21/15
f 35/25/16 25/26/17 24/24/16
f 34/27/17 1/3/1 25/26/17
f 56/19/9 11/28/18 2/18/9
f 55/29/18 12/30/19 11/28/18
f 54/31/19 13/32/20 12/30/19
f 53/33/20 14/34/21 13/32/20
f 52/35/21 15/7/22 14/9/21
f 51/8/22 16/5/23 15/7/22
f 50/6/23 17/2/24 16/5/23
f 49/4/24 10/3/25 17/2/24
f 18/18/10 26/29/26 33/19/10
f 47/28/26 27/31/27 26/29/26
f 46/30/27 28/33/28 27/31/27
f 45/32/28 29/36/29 28/33/28
f 44/22/29 30/37/30 29/20/29
f 43/38/30 31/25/31 30/37/30
f 42/24/31 32/27/32 31/25/31
f 41/26/32 48/1/25 32/27/32
f 47/39/33 25/40/33 9/41/33
f 55/42/34 64/43/34 40/44/34
f 57/1/1 64/4/2 3/2/2
f 64/4/2 63/6/3 4/5/3
f 63/6/3 62/8/4 5/7/4
f 62/8/4 61/35/5 6/9/5
f 61/10/5 60/13/6 7/11/6
f 60/13/6 59/15/7 8/14/7
f 59/15/7 58/17/8 9/16/8
f 58/17/8 56/19/9 2/18/9
f 33/19/10 40/17/11 19/16/11
f 40/17/11 39/15/12 20/14/12
f 39/15/12 38/13/13 21/11/13
f 38/13/13 37/10/14 22/12/14
f 37/20/14 36/23/15 23/21/15
f 36/23/15 35/25/16 24/24/16
f 35/25/16 34/27/17 25/26/17
f 34/27/17 57/1/1 1/3/1
f 56/19/9 55/29/18 11/28/18
f 55/29/18 54/31/19 12/30/19
f 54/31/19 53/33/20 13/32/20
f 53/33/20 52/36/21 14/34/21
f 52/35/21 51/8/22 15/7/22
f 51/8/22 50/6/23 16/5/23
f 50/6/23 49/4/24 17/2/24
f 49/4/24 48/1/25 10/3/25
f 18/18/10 47/28/26 26/29/26
f 47/28/26 46/30/27 27/31/27
f 46/30/27 45/32/28 28/33/28
f 45/32/28 44/34/29 29/36/29
f 44/22/29 43/38/30 30/37/30
f 43/38/30 42/24/31 31/25/31
f 42/24/31 41/26/32 32/27/32
f 41/26/32 10/3/25 48/1/25
f 9/41/33 2/45/33 11/46/33
f 11/46/33 12/47/33 13/48/33
f 13/48/33 14/49/33 15/50/33
f 15/50/33 16/51/33 17/52/33
f 17/52/33 10/53/33 41/54/33
f 41/54/33 42/55/33 43/56/33
f 43/56/33 44/57/33 45/58/33
f 45/58/33 46/59/33 47/39/33
f 47/39/33 18/60/33 19/61/33
f 19/61/33 20/62/33 21/63/33
f 21/63/33 22/64/33 23/65/33
f 23/65/33 24/66/33 25/40/33
f 25/40/33 1/67/33 3/68/33
f 3/68/33 4/69/33 5/70/33
f 5/70/33 6/71/33 7/72/33
f 7/72/33 8/73/33 9/41/33
f 9/41/33 11/46/33 13/48/33
f 13/48/33 15/50/33 17/52/33
f 17/52/33 41/54/33 43/56/33
f 43/56/33 45/58/33 47/39/33
f 47/39/33 19/61/33 21/63/33
f 21/63/33 23/65/33 25/40/33
f 25/40/33 3/68/33 5/70/33
f 5/70/33 7/72/33 9/41/33
f 9/41/33 13/48/33 17/52/33
f 17/52/33 43/56/33 47/39/33
f 47/39/33 21/63/33 25/40/33
f 25/40/33 5/70/33 9/41/33
f 9/41/33 17/52/33 47/39/33
f 40/44/34 33/60/34 26/74/34
f 26/74/34 27/75/34 28/76/34
f 28/76/34 29/77/34 30/56/34
f 30/56/34 31/78/34 32/54/34
f 32/54/34 48/53/34 49/52/34
f 49/52/34 50/79/34 51/80/34
f 51/80/34 52/81/34 53/48/34
f 53/48/34 54/82/34 55/42/34
f 55/42/34 56/45/34 58/83/34
f 58/83/34 59/84/34 60/85/34
f 60/85/34 61/86/34 62/70/34
f 62/70/34 63/69/34 64/43/34
f 64/43/34 57/67/34 34/87/34
f 34/87/34 35/88/34 36/65/34
f 36/65/34 37/89/34 38/90/34
f 38/90/34 39/91/34 40/44/34
f 40/44/34 26/74/34 28/76/34
f 28/76/34 30/56/34 32/54/34
f 32/54/34 49/52/34 51/80/34
f 51/80/34 53/48/34 55/42/34
f 55/42/34 58/83/34 60/85/34
f 60/85/34 62/70/34 64/43/34
f 64/43/34 34/87/34 36/65/34
f 36/65/34 38/90/34 40/44/34
f 40/44/34 28/76/34 32/54/34
f 32/54/34 51/80/34 55/42/34
f 55/42/34 60/85/34 64/43/34
f 64/43/34 36/65/34 40/44/34
f 40/44/34 32/54/34 55/42/34
