# Blender 5.0.1
# www.blender.org
mtllib rotate.mtl
o Rotate
v -13.004801 11.785600 -13.004799
v -13.004799 11.785600 13.004801
v 13.004799 11.785600 -13.004801
v 13.004801 -11.785600 13.004799
v 13.004799 -11.785600 -13.004801
v 13.004801 11.785600 13.004799
v -13.004799 -11.785600 13.004801
v -13.004801 -11.785600 -13.004799
vn -0.0000 1.0000 -0.0000
vn -0.0000 -1.0000 -0.0000
vn -0.0000 -0.0000 -1.0000
vn -0.0000 -0.0000 1.0000
vn 1.0000 -0.0000 -0.0000
vn -1.0000 -0.0000 -0.0000
vt 92.000000 -39.000000
vt 76.000000 -55.000000
vt 92.000000 -55.000000
vt 76.000000 -39.000000
vt -56.000000 -39.500000
vt -40.000000 -54.000000
vt -56.000000 -54.000000
vt -40.000000 -39.500000
vt 76.000000 -39.500000
vt 92.000000 -54.000000
vt 76.000000 -54.000000
vt 92.000000 -39.500000
s 1
usemtl materials/dev/reflectivity_30.vmat
f 6/1/1 1/2/1 2/3/1
f 7/3/2 5/4/2 4/1/2
f 1/5/3 5/6/3 8/7/3
f 7/7/4 6/8/4 2/5/4
f 3/9/5 4/10/5 5/11/5
f 8/11/6 2/12/6 1/9/6
f 6/1/1 3/4/1 1/2/1
f 7/3/2 8/2/2 5/4/2
f 1/5/3 3/8/3 5/6/3
f 7/7/4 4/6/4 6/8/4
f 3/9/5 6/12/5 4/10/5
f 8/11/6 7/10/6 2/12/6
