# Blender 4.2.3 LTS
# www.blender.org
mtllib cart.mtl
o Cart
v 0.500000 0.000000 -0.700000
v 0.400000 0.600000 -0.600000
v 0.500000 0.000000 0.700000
v 0.400000 0.600000 0.600000
v -0.500000 0.000000 -0.700000
v -0.400000 0.600000 -0.600000
v -0.500000 0.000000 0.700000
v -0.400000 0.600000 0.600000
v 0.500000 0.600000 -0.700000
v 0.500000 0.600000 0.700000
v -0.500000 0.600000 0.700000
v -0.500000 0.600000 -0.700000
v 0.400000 0.100000 -0.600000
v 0.400000 0.100000 0.600000
v -0.400000 0.100000 0.600000
v -0.400000 0.100000 -0.600000
vn 1.0000 -0.0000 -0.0000
vn -0.0000 -0.0000 1.0000
vn -1.0000 -0.0000 -0.0000
vn -0.0000 -0.0000 -1.0000
vn -0.0000 -1.0000 -0.0000
vn -0.0000 1.0000 -0.0000
vt 0.375000 1.000000
vt 0.625000 0.750000
vt 0.625000 1.000000
vt 0.375000 0.750000
vt 0.625000 0.500000
vt 0.375000 0.500000
vt 0.625000 0.250000
vt 0.375000 0.250000
vt 0.625000 0.000000
vt 0.875000 0.250000
vt 0.875000 0.500000
vt 0.350000 0.267857
vt 0.150000 0.267857
vt 0.125000 0.500000
vt 0.125000 0.250000
vt 0.350000 0.482143
vt 0.150000 0.482143
vt 0.375000 0.000000
s 0
usemtl rail
f 9/1/1 3/2/1 1/3/1
f 10/4/2 7/5/2 3/2/2
f 11/6/3 5/7/3 7/5/3
f 12/8/4 1/9/4 5/7/4
f 7/5/5 1/10/5 3/11/5
f 6/12/2 13/13/2 2/13/2
f 2/13/6 10/14/6 9/15/6
f 8/16/6 10/14/6 4/17/6
f 8/16/6 12/8/6 11/6/6
f 2/13/6 12/8/6 6/12/6
f 14/17/6 16/12/6 15/16/6
f 4/17/4 15/16/4 8/16/4
f 8/16/1 16/12/1 6/12/1
f 2/13/3 14/17/3 4/17/3
f 9/1/1 10/4/1 3/2/1
f 10/4/2 11/6/2 7/5/2
f 11/6/3 12/8/3 5/7/3
f 12/8/4 9/18/4 1/9/4
f 7/5/5 5/7/5 1/10/5
f 6/12/2 16/12/2 13/13/2
f 2/13/6 4/17/6 10/14/6
f 8/16/6 11/6/6 10/14/6
f 8/16/6 6/12/6 12/8/6
f 2/13/6 9/15/6 12/8/6
f 14/17/6 13/13/6 16/12/6
f 4/17/4 14/17/4 15/16/4
f 8/16/1 15/16/1 16/12/1
f 2/13/3 13/13/3 14/17/3
