{
	"asset":{
		"generator":"Khronos glTF Blender I/O v4.3.47",
		"version":"2.0"
	},
	"scene":0,
	"scenes":[
		{
			"name":"Scene",
			"nodes":[
				0,
				1,
				2,
				3,
				4,
				5,
				6
			]
		}
	],
	"nodes":[
		{
			"mesh":0,
			"name":"Icosphere"
		},
		{
			"mesh":1,
			"name":"Torus",
			"scale":[
				2.838026285171509,
				2.838026285171509,
				2.838026285171509
			]
		},
		{
			"mesh":2,
			"name":"Suzanne",
			"translation":[
				0,
				3.126617908477783,
				0
			]
		},
		{
			"mesh":3,
			"name":"Sphere",
			"translation":[
				-4.569247245788574,
				1.5560611486434937,
				0
			]
		},
		{
			"name":"Circle",
			"rotation":[
				0.4738927185535431,
				0,
				0,
				0.8805825710296631
			],
			"translation":[
				5.4327239990234375,
				1.5610252618789673,
				0
			]
		},
		{
			"mesh":4,
			"name":"rock",
			"translation":[
				0,
				8.013870239257812,
				0
			]
		},
		{
			"mesh":5,
			"name":"pattern_hexagon",
			"rotation":[
				-0.39881184697151184,
				-0.15474699437618256,
				0.1572890728712082,
				0.8900914788246155
			]
		}
	],
	"meshes":[
		{
			"name":"Icosphere",
			"primitives":[
				{
					"attributes":{
						"POSITION":0,
						"NORMAL":1,
						"TEXCOORD_0":2
					},
					"indices":3
				}
			]
		},
		{
			"name":"Torus",
			"primitives":[
				{
					"attributes":{
						"POSITION":4,
						"NORMAL":5,
						"TEXCOORD_0":6
					},
					"indices":7
				}
			]
		},
		{
			"name":"Suzanne",
			"primitives":[
				{
					"attributes":{
						"POSITION":8,
						"NORMAL":9,
						"TEXCOORD_0":10
					},
					"indices":11
				}
			]
		},
		{
			"name":"Sphere",
			"primitives":[
				{
					"attributes":{
						"POSITION":12,
						"NORMAL":13,
						"TEXCOORD_0":14
					},
					"indices":15
				}
			]
		},
		{
			"name":"rock",
			"primitives":[
				{
					"attributes":{
						"POSITION":16,
						"NORMAL":17
					},
					"indices":18
				}
			]
		},
		{
			"name":"Circle.001",
			"primitives":[
				{
					"attributes":{
						"POSITION":19,
						"NORMAL":20,
						"TEXCOORD_0":21
					},
					"indices":22
				}
			]
		}
	],
	"accessors":[
		{
			"bufferView":0,
			"componentType":5126,
			"count":240,
			"max":[
				0.9510578513145447,
				1,
				0.9999999403953552
			],
			"min":[
				-0.9510578513145447,
				-1,
				-0.9999999403953552
			],
			"type":"VEC3"
		},
		{
			"bufferView":1,
			"componentType":5126,
			"count":240,
			"type":"VEC3"
		},
		{
			"bufferView":2,
			"componentType":5126,
			"count":240,
			"type":"VEC2"
		},
		{
			"bufferView":3,
			"componentType":5123,
			"count":240,
			"type":"SCALAR"
		},
		{
			"bufferView":4,
			"componentType":5126,
			"count":2304,
			"max":[
				1.25,
				0.25,
				1.25
			],
			"min":[
				-1.25,
				-0.25,
				-1.25
			],
			"type":"VEC3"
		},
		{
			"bufferView":5,
			"componentType":5126,
			"count":2304,
			"type":"VEC3"
		},
		{
			"bufferView":6,
			"componentType":5126,
			"count":2304,
			"type":"VEC2"
		},
		{
			"bufferView":7,
			"componentType":5123,
			"count":3456,
			"type":"SCALAR"
		},
		{
			"bufferView":8,
			"componentType":5126,
			"count":1966,
			"max":[
				1.3671875,
				0.984375,
				0.8515625
			],
			"min":[
				-1.3671875,
				-0.984375,
				-0.8515625
			],
			"type":"VEC3"
		},
		{
			"bufferView":9,
			"componentType":5126,
			"count":1966,
			"type":"VEC3"
		},
		{
			"bufferView":10,
			"componentType":5126,
			"count":1966,
			"type":"VEC2"
		},
		{
			"bufferView":11,
			"componentType":5123,
			"count":2904,
			"type":"SCALAR"
		},
		{
			"bufferView":12,
			"componentType":5126,
			"count":1984,
			"max":[
				0.9999997019767761,
				1,
				0.9999993443489075
			],
			"min":[
				-0.9999990463256836,
				-1,
				-1
			],
			"type":"VEC3"
		},
		{
			"bufferView":13,
			"componentType":5126,
			"count":1984,
			"type":"VEC3"
		},
		{
			"bufferView":14,
			"componentType":5126,
			"count":1984,
			"type":"VEC2"
		},
		{
			"bufferView":15,
			"componentType":5123,
			"count":2880,
			"type":"SCALAR"
		},
		{
			"bufferView":16,
			"componentType":5126,
			"count":3074,
			"max":[
				1.6396862268447876,
				1.7695927619934082,
				3.867119073867798
			],
			"min":[
				-2.1449432373046875,
				-4.002030372619629,
				-3.8514857292175293
			],
			"type":"VEC3"
		},
		{
			"bufferView":17,
			"componentType":5126,
			"count":3074,
			"type":"VEC3"
		},
		{
			"bufferView":18,
			"componentType":5123,
			"count":18432,
			"type":"SCALAR"
		},
		{
			"bufferView":19,
			"componentType":5126,
			"count":1008,
			"max":[
				20.5,
				0,
				20.784610748291016
			],
			"min":[
				-1,
				0,
				-0.866025447845459
			],
			"type":"VEC3"
		},
		{
			"bufferView":20,
			"componentType":5126,
			"count":1008,
			"type":"VEC3"
		},
		{
			"bufferView":21,
			"componentType":5126,
			"count":1008,
			"type":"VEC2"
		},
		{
			"bufferView":22,
			"componentType":5123,
			"count":2016,
			"type":"SCALAR"
		}
	],
	"bufferViews":[
		{
			"buffer":0,
			"byteLength":2880,
			"byteOffset":0,
			"target":34962
		},
		{
			"buffer":0,
			"byteLength":2880,
			"byteOffset":2880,
			"target":34962
		},
		{
			"buffer":0,
			"byteLength":1920,
			"byteOffset":5760,
			"target":34962
		},
		{
			"buffer":0,
			"byteLength":480,
			"byteOffset":7680,
			"target":34963
		},
		{
			"buffer":0,
			"byteLength":27648,
			"byteOffset":8160,
			"target":34962
		},
		{
			"buffer":0,
			"byteLength":27648,
			"byteOffset":35808,
			"target":34962
		},
		{
			"buffer":0,
			"byteLength":18432,
			"byteOffset":63456,
			"target":34962
		},
		{
			"buffer":0,
			"byteLength":6912,
			"byteOffset":81888,
			"target":34963
		},
		{
			"buffer":0,
			"byteLength":23592,
			"byteOffset":88800,
			"target":34962
		},
		{
			"buffer":0,
			"byteLength":23592,
			"byteOffset":112392,
			"target":34962
		},
		{
			"buffer":0,
			"byteLength":15728,
			"byteOffset":135984,
			"target":34962
		},
		{
			"buffer":0,
			"byteLength":5808,
			"byteOffset":151712,
			"target":34963
		},
		{
			"buffer":0,
			"byteLength":23808,
			"byteOffset":157520,
			"target":34962
		},
		{
			"buffer":0,
			"byteLength":23808,
			"byteOffset":181328,
			"target":34962
		},
		{
			"buffer":0,
			"byteLength":15872,
			"byteOffset":205136,
			"target":34962
		},
		{
			"buffer":0,
			"byteLength":5760,
			"byteOffset":221008,
			"target":34963
		},
		{
			"buffer":0,
			"byteLength":36888,
			"byteOffset":226768,
			"target":34962
		},
		{
			"buffer":0,
			"byteLength":36888,
			"byteOffset":263656,
			"target":34962
		},
		{
			"buffer":0,
			"byteLength":36864,
			"byteOffset":300544,
			"target":34963
		},
		{
			"buffer":0,
			"byteLength":12096,
			"byteOffset":337408,
			"target":34962
		},
		{
			"buffer":0,
			"byteLength":12096,
			"byteOffset":349504,
			"target":34962
		},
		{
			"buffer":0,
			"byteLength":8064,
			"byteOffset":361600,
			"target":34962
		},
		{
			"buffer":0,
			"byteLength":4032,
			"byteOffset":369664,
			"target":34963
		}
	],
	"buffers":[
		{
			"byteLength":373696,
			"uri":"importTest.bin"
		}
	]
}
