# Blender 4.2.3 LTS
# www.blender.org
mtllib rail.mtl
o Rail
v 0.450000 0.000000 -0.500000
v 0.450000 0.100000 -0.500000
v 0.450000 0.000000 0.500000
v 0.450000 0.100000 0.500000
v 0.350000 0.000000 -0.500000
v 0.350000 0.100000 -0.500000
v 0.350000 0.000000 0.500000
v 0.350000 0.100000 0.500000
v -0.350000 0.000000 -0.500000
v -0.350000 0.100000 -0.500000
v -0.350000 0.000000 0.500000
v -0.350000 0.100000 0.500000
v -0.450000 0.000000 -0.500000
v -0.450000 0.100000 -0.500000
v -0.450000 0.000000 0.500000
v -0.450000 0.100000 0.500000
v -0.600000 -0.000000 -0.150000
v -0.600000 -0.100000 -0.150000
v -0.600000 -0.000000 -0.350000
v -0.600000 -0.100000 -0.350000
v 0.600000 -0.000000 -0.150000
v 0.600000 -0.100000 -0.150000
v 0.600000 -0.000000 -0.350000
v 0.600000 -0.100000 -0.350000
v 0.600000 -0.100000 0.150000
v 0.600000 -0.000000 0.150000
v 0.600000 -0.100000 0.350000
v 0.600000 -0.000000 0.350000
v -0.600000 -0.100000 0.150000
v -0.600000 -0.000000 0.150000
v -0.600000 -0.100000 0.350000
v -0.600000 -0.000000 0.350000
vn 1.0000 -0.0000 -0.0000
vn -0.0000 -0.0000 1.0000
vn -1.0000 -0.0000 -0.0000
vn -0.0000 -0.0000 -1.0000
vn -0.0000 -1.0000 -0.0000
vn -0.0000 1.0000 -0.0000
vt 0.000000 1.000000
vt 0.125000 -0.125000
vt 0.125000 1.000000
vt 0.000000 1.000000
vt 0.125000 0.875000
vt 0.125000 1.000000
vt 0.125000 1.000000
vt 0.250000 -0.125000
vt 0.250000 1.000000
vt -0.000000 1.000000
vt 0.125000 0.875000
vt 0.125000 1.000000
vt 0.500000 1.000000
vt 0.625000 -0.125000
vt 0.625000 1.000000
vt 0.625000 1.000000
vt 0.750000 -0.125000
vt 0.750000 1.000000
vt 0.250000 1.000000
vt 0.375000 -0.125000
vt 0.375000 1.000000
vt 0.125000 0.875000
vt 0.125000 1.000000
vt 0.375000 1.000000
vt 0.500000 -0.125000
vt 0.500000 1.000000
vt 0.750000 1.000000
vt 0.875000 -0.125000
vt 0.875000 1.000000
vt 0.875000 1.000000
vt 1.000000 -0.125000
vt 1.000000 1.000000
vt 0.000000 1.000000
vt 0.750000 0.875000
vt 0.000000 0.875000
vt 0.125000 1.000000
vt 0.000000 0.937500
vt 0.125000 0.937500
vt 0.000000 0.812500
vt 0.750000 0.812500
vt 0.000000 -0.125000
vt 0.000000 0.875000
vt 0.125000 -0.125000
vt -0.000000 0.875000
vt 0.625000 -0.125000
vt 0.250000 -0.125000
vt -0.000000 0.875000
vt 0.375000 -0.125000
vt 0.750000 -0.125000
vt 0.875000 -0.125000
s 0
usemtl rail
f 2/1/1 3/2/1 1/3/1
f 4/4/2 7/5/2 3/6/2
f 8/7/3 5/8/3 7/9/3
f 6/10/4 1/11/4 5/12/4
f 7/13/5 1/14/5 3/15/5
f 4/16/6 6/17/6 8/18/6
f 10/19/1 11/20/1 9/21/1
f 12/10/2 15/22/2 11/23/2
f 16/24/3 13/25/3 15/26/3
f 14/10/4 9/5/4 13/6/4
f 15/27/5 9/28/5 11/29/5
f 12/30/6 14/31/6 16/32/6
f 18/33/5 24/34/5 22/27/5
f 21/27/2 18/35/2 22/34/2
f 23/36/1 22/37/1 24/38/1
f 19/34/4 24/39/4 20/40/4
f 21/33/6 19/34/6 17/27/6
f 17/36/3 20/37/3 18/38/3
f 26/36/1 27/37/1 25/38/1
f 28/27/2 31/35/2 27/34/2
f 32/36/3 29/37/3 31/38/3
f 30/34/4 25/39/4 29/40/4
f 31/33/5 25/34/5 27/27/5
f 28/33/6 30/34/6 32/27/6
f 2/1/1 4/41/1 3/2/1
f 4/4/2 8/42/2 7/5/2
f 8/7/3 6/43/3 5/8/3
f 6/10/4 2/44/4 1/11/4
f 7/13/5 5/25/5 1/14/5
f 4/16/6 2/45/6 6/17/6
f 10/19/1 12/46/1 11/20/1
f 12/10/2 16/47/2 15/22/2
f 16/24/3 14/48/3 13/25/3
f 14/10/4 10/42/4 9/5/4
f 15/27/5 13/49/5 9/28/5
f 12/30/6 10/50/6 14/31/6
f 18/33/5 20/35/5 24/34/5
f 21/27/2 17/33/2 18/35/2
f 23/36/1 21/33/1 22/37/1
f 19/34/4 23/35/4 24/39/4
f 21/33/6 23/35/6 19/34/6
f 17/36/3 19/33/3 20/37/3
f 26/36/1 28/33/1 27/37/1
f 28/27/2 32/33/2 31/35/2
f 32/36/3 30/33/3 29/37/3
f 30/34/4 26/35/4 25/39/4
f 31/33/5 29/35/5 25/34/5
f 28/33/6 26/35/6 30/34/6
