# Blender 4.4.3
# www.blender.org
mtllib reflectionTest.mtl
o level
v 0.203197 6.705595 0.203199
v 0.203196 6.705595 -0.203200
v -0.203206 6.705595 0.203199
v 0.203197 6.299196 -0.203200
v -0.203204 6.299196 0.203199
v -0.203205 6.299196 -0.203200
v -0.203208 6.705595 -0.203200
v 0.203199 6.299196 0.203199
v -13.004791 0.000001 13.004791
v 13.004791 0.000001 13.004791
v -13.004791 -0.000001 -13.004791
v 13.004791 -0.000001 -13.004791
v -13.004791 -0.000001 -13.004791
v 13.004791 -0.000001 -13.004791
v 13.004791 -39.014378 -65.023956
v -13.004791 -39.014378 -65.023956
v -39.014374 -39.014378 -65.023956
v 39.014374 -39.014378 -65.023956
v 39.014374 -39.014404 -416.153320
v -39.014374 -39.014404 -416.153320
v -39.014374 -35.763184 -78.028748
v 39.014374 -35.763184 -78.028748
v -39.014374 -35.763184 -84.531143
v 39.014374 -39.014381 -84.531143
v -39.014374 -39.014381 -84.531143
v 39.014374 -35.763184 -84.531143
v 39.014374 -39.014381 -78.028748
v -39.014374 -39.014381 -78.028748
v -39.014374 -29.260788 -104.038330
v 39.014374 -29.260788 -104.038330
v -39.014374 -29.260788 -110.540726
v 39.014374 -39.014381 -110.540726
v -39.014374 -39.014381 -110.540726
v 39.014374 -29.260788 -110.540726
v 39.014374 -39.014381 -104.038330
v -39.014374 -39.014381 -104.038330
v -39.014374 -19.507196 -130.047913
v 39.014374 -19.507196 -130.047913
v -39.014374 -19.507196 -136.550308
v 39.014374 -39.014385 -136.550308
v -39.014374 -39.014385 -136.550308
v 39.014374 -19.507196 -136.550308
v 39.014374 -39.014385 -130.047913
v -39.014374 -39.014385 -130.047913
v -39.014374 3.251179 -247.091034
v -26.009583 -13.004810 -247.091034
v -39.014374 3.251171 -351.129364
v -26.009583 -13.004818 -351.129364
v -39.014374 -13.004818 -351.129364
v -39.014374 -13.004810 -247.091034
v -39.014374 -39.014400 -351.129364
v -26.009583 -39.014400 -351.129364
v -26.009583 -39.014393 -247.091034
v -39.014374 -39.014393 -247.091034
v 39.014374 3.251171 -351.129364
v 26.009583 -13.004818 -351.129364
v 39.014374 3.251179 -247.091034
v 26.009583 -13.004810 -247.091034
v 39.014374 -13.004810 -247.091034
v 39.014374 -13.004818 -351.129364
v 39.014374 -39.014393 -247.091034
v 26.009583 -39.014393 -247.091034
v 26.009583 -39.014400 -351.129364
v 39.014374 -39.014400 -351.129364
v -39.014374 -0.000028 -377.138947
v 39.014374 -0.000028 -377.138947
v -39.014374 -0.000031 -416.153320
v 39.014374 -39.014404 -416.153320
v -39.014374 -39.014404 -416.153320
v 39.014374 -0.000031 -416.153320
v 39.014374 -39.014400 -377.138947
v -39.014374 -39.014400 -377.138947
v -3.251198 78.028732 -247.091034
v -3.251198 78.028740 -136.550308
v 3.251198 78.028732 -247.091034
v 3.251198 -39.014385 -136.550308
v 3.251198 -39.014393 -247.091034
v 3.251198 78.028740 -136.550308
v -3.251198 -39.014385 -136.550308
v -3.251198 -39.014393 -247.091034
v -45.516769 78.028732 -247.091034
v -45.516769 78.028740 -136.550308
v -39.014374 78.028732 -247.091034
v -39.014374 -39.014385 -136.550308
v -39.014374 -39.014393 -247.091034
v -39.014374 78.028740 -136.550308
v -45.516769 -39.014385 -136.550308
v -45.516769 -39.014393 -247.091034
v 39.014374 78.028732 -247.091034
v 39.014374 78.028740 -136.550308
v 45.516769 78.028732 -247.091034
v 45.516769 -39.014385 -136.550308
v 45.516769 -39.014393 -247.091034
v 45.516769 78.028740 -136.550308
v 39.014374 -39.014385 -136.550308
v 39.014374 -39.014393 -247.091034
vn -0.0000 1.0000 -0.0000
vn -0.0000 -1.0000 -0.0000
vn -0.0000 -0.0000 1.0000
vn -0.0000 -0.0000 -1.0000
vn -1.0000 -0.0000 -0.0000
vn 1.0000 -0.0000 -0.0000
vn -0.0000 0.8000 -0.6000
vn 0.7809 0.6247 -0.0000
vn -0.7809 0.6247 -0.0000
vt 0.886719 0.896484
vt 1.000000 0.896484
vt 1.000000 1.000000
vt 0.886719 1.000000
vt 0.896484 1.000000
vt 0.896484 1.058590
vt 1.000000 1.058590
vt 0.886719 1.058590
vt -8.000000 -7.000000
vt 8.000000 -7.000000
vt 8.000000 9.000000
vt -8.000000 9.000000
vt 8.000000 41.000000
vt -8.000000 41.000000
vt -24.000000 41.000000
vt 24.000000 41.000000
vt 24.000000 257.000000
vt -24.000000 257.000000
vt -24.000000 49.000000
vt 24.000000 49.000000
vt 24.000000 53.000000
vt -24.000000 53.000000
vt 52.000000 -23.000000
vt 48.000000 -23.000000
vt 48.000000 -21.000000
vt 52.000000 -21.000000
vt 24.000000 -23.000000
vt -24.000000 -23.000000
vt -24.000000 -21.000000
vt 24.000000 -21.000000
vt -24.000000 65.000000
vt 24.000000 65.000000
vt 24.000000 69.000000
vt -24.000000 69.000000
vt 68.000000 -23.000000
vt 64.000000 -23.000000
vt 64.000000 -17.000000
vt 68.000000 -17.000000
vt -24.000000 -17.000000
vt 24.000000 -17.000000
vt -24.000000 81.000000
vt 24.000000 81.000000
vt 24.000000 85.000000
vt -24.000000 85.000000
vt 84.000000 -23.000000
vt 80.000000 -23.000000
vt 80.000000 -11.000000
vt 84.000000 -11.000000
vt -24.000000 -11.000000
vt 24.000000 -11.000000
vt 152.000000 -7.000000
vt 216.000000 -7.000000
vt 216.000000 -23.000000
vt 152.000000 -23.000000
vt -16.000000 -7.000000
vt -8.000000 -23.000000
vt -16.000000 -23.000000
vt 152.000000 3.000000
vt 216.000000 3.000000
vt 216.000000 10.000000
vt 152.000000 10.000000
vt 152.000000 0.000001
vt 216.000000 0.000001
vt -16.000000 3.000000
vt -16.000000 217.000000
vt -8.000000 217.000000
vt -8.000000 153.000000
vt -16.000000 153.000000
vt 217.000000 -7.000000
vt 153.000000 -7.000000
vt 153.000000 -23.000000
vt 217.000000 -23.000000
vt 16.000000 -7.000000
vt 7.999990 -7.000000
vt 7.999990 -23.000000
vt 16.000000 -23.000000
vt 217.000000 3.000000
vt 153.000000 3.000000
vt 216.000000 0.000000
vt 152.000000 0.000005
vt 16.000000 3.000000
vt 8.000020 -7.000000
vt 16.000000 153.000000
vt 7.999990 153.000000
vt 8.000020 217.000000
vt 16.000000 217.000000
vt 8.000020 -23.000000
vt -24.000000 233.000000
vt 24.000000 233.000000
vt 256.000000 -23.000000
vt 232.000000 -23.000000
vt 232.000000 1.000000
vt 256.000000 1.000000
vt -24.000000 1.000000
vt 24.000000 1.000000
vt -152.000000 -1.000000
vt -84.000000 -1.000000
vt -84.000000 3.000000
vt -152.000000 3.000000
vt 2.000000 -23.000000
vt -2.000000 -23.000000
vt -2.000000 49.000000
vt 2.000000 49.000000
vt 3.000000 49.000000
vt -1.000000 49.000000
vt -1.000000 -23.000000
vt 3.000000 -23.000000
vt -84.000000 -23.000000
vt -152.000000 -23.000000
vt -152.000000 49.000000
vt -84.000000 49.000000
vt -152.000000 -27.000000
vt -84.000000 -27.000000
vt -28.000000 -23.000000
vt -28.000000 49.000000
vt -152.000000 25.000000
vt -84.000000 25.000000
vt -84.000000 29.000000
vt -152.000000 29.000000
vt 28.000000 -23.000000
vt 28.000000 49.000000
s 1
usemtl Material
f 1/1/1 2/2/1 7/3/1 3/4/1
f 5/4/2 6/3/2 4/2/2 8/1/2
f 5/3/3 8/5/3 1/6/3 3/7/3
f 7/7/4 2/6/4 4/5/4 6/3/4
f 6/3/5 5/4/5 3/8/5 7/7/5
f 2/7/6 1/8/6 8/4/6 4/3/6
f 9/9/1 10/10/1 12/11/1 11/12/1
f 13/12/7 14/11/7 15/13/7 16/14/7
f 17/15/1 18/16/1 19/17/1 20/18/1
f 21/19/1 22/20/1 26/21/1 23/22/1
f 25/22/2 24/21/2 27/20/2 28/19/2
f 25/23/5 28/24/5 21/25/5 23/26/5
f 26/26/6 22/25/6 27/24/6 24/23/6
f 24/27/4 25/28/4 23/29/4 26/30/4
f 22/30/3 21/29/3 28/28/3 27/27/3
f 29/31/1 30/32/1 34/33/1 31/34/1
f 33/34/2 32/33/2 35/32/2 36/31/2
f 33/35/5 36/36/5 29/37/5 31/38/5
f 34/38/6 30/37/6 35/36/6 32/35/6
f 32/27/4 33/28/4 31/39/4 34/40/4
f 30/40/3 29/39/3 36/28/3 35/27/3
f 37/41/1 38/42/1 42/43/1 39/44/1
f 41/44/2 40/43/2 43/42/2 44/41/2
f 41/45/5 44/46/5 37/47/5 39/48/5
f 42/48/6 38/47/6 43/46/6 40/45/6
f 40/27/4 41/28/4 39/49/4 42/50/4
f 38/50/3 37/49/3 44/28/3 43/27/3
f 50/51/5 49/52/5 51/53/5 54/54/5
f 49/55/4 48/9/4 52/56/4 51/57/4
f 49/52/5 50/51/5 45/58/5 47/59/5
f 47/60/8 45/61/8 46/62/8 48/63/8
f 48/9/4 49/55/4 47/64/4
f 45/64/3 50/55/3 46/9/3
f 51/65/2 52/66/2 53/67/2 54/68/2
f 48/52/6 46/51/6 53/54/6 52/53/6
f 46/9/3 50/55/3 54/57/3 53/56/3
f 60/69/6 59/70/6 61/71/6 64/72/6
f 59/73/3 58/74/3 62/75/3 61/76/3
f 59/70/6 60/69/6 55/77/6 57/78/6
f 57/61/9 55/60/9 56/79/9 58/80/9
f 58/74/3 59/73/3 57/81/3
f 55/81/4 60/73/4 56/82/4
f 61/83/2 62/84/2 63/85/2 64/86/2
f 58/51/5 56/52/5 63/53/5 62/54/5
f 56/82/4 60/73/4 64/76/4 63/87/4
f 65/88/1 66/89/1 70/17/1 67/18/1
f 69/18/2 68/17/2 71/89/2 72/88/2
f 69/90/5 72/91/5 65/92/5 67/93/5
f 70/93/6 66/92/6 71/91/6 68/90/6
f 68/27/4 69/28/4 67/94/4 70/95/4
f 66/95/3 65/94/3 72/28/3 71/27/3
f 73/96/1 74/97/1 78/98/1 75/99/1
f 77/99/2 76/98/2 79/97/2 80/96/2
f 77/100/4 80/101/4 73/102/4 75/103/4
f 78/104/3 74/105/3 79/106/3 76/107/3
f 76/108/6 77/109/6 75/110/6 78/111/6
f 74/111/5 73/110/5 80/109/5 79/108/5
f 81/112/1 82/113/1 86/108/1 83/109/1
f 85/109/2 84/108/2 87/113/2 88/112/2
f 85/28/4 88/114/4 81/115/4 83/19/4
f 86/19/3 82/115/3 87/114/3 84/28/3
f 84/108/6 85/109/6 83/110/6 86/111/6
f 82/111/5 81/110/5 88/109/5 87/108/5
f 89/116/1 90/117/1 94/118/1 91/119/1
f 93/119/2 92/118/2 95/117/2 96/116/2
f 93/120/4 96/27/4 89/20/4 91/121/4
f 94/121/3 90/20/3 95/27/3 92/120/3
f 92/108/6 93/109/6 91/110/6 94/111/6
f 90/111/5 89/110/5 96/109/5 95/108/5
