# Blender 4.4.3
# www.blender.org
mtllib reflectionTest.mtl
o map
v -0.406400 13.411200 0.406399
v 0.406400 13.411200 0.406399
v -0.406400 13.411200 -0.406401
v 0.406400 12.598400 -0.406401
v -0.406400 12.598400 -0.406401
v 0.406400 13.411200 -0.406401
v 0.406400 12.598400 0.406399
v -0.406400 12.598400 0.406399
v -6.502400 8.128001 6.502399
v 6.502400 8.128001 6.502399
v -6.502400 8.127999 -6.502400
v 6.502400 -0.000000 -6.502400
v -6.502400 -0.000000 -6.502400
v 6.502400 8.127999 -6.502400
v 6.502400 0.000000 6.502400
v -6.502400 0.000000 6.502400
v 6.502400 -0.000000 -3.251200
v 6.502400 4.876801 3.251199
v 6.502400 4.876800 -3.251200
v 6.502400 0.000000 3.251200
v 130.048004 4.876801 3.251199
v 130.048004 4.876800 -3.251200
v 130.048004 -0.000000 -3.251200
v 130.048004 0.000000 3.251200
v -4.876800 8.127999 -6.502400
v 4.876800 8.128000 -4.876801
v -4.876800 8.128000 -4.876801
v 4.876800 8.128000 4.876800
v -4.876800 8.128000 4.876800
v -4.876800 8.128000 -1.625601
v 4.876800 8.128000 -3.251201
v 4.876800 8.128000 -1.625601
v -4.876800 8.128000 -0.000001
v -4.876800 8.128000 1.625599
v 4.876800 8.128000 -0.000001
v 4.876800 8.128000 1.625599
v -4.876800 8.128000 3.251199
v -4.876800 19.507200 -4.876801
v -4.876800 19.507200 -1.625601
v 4.876800 19.507200 -4.876801
v 4.876800 19.507200 -3.251201
v 4.876800 19.507200 4.876799
v 4.876800 19.507200 1.625599
v -4.876800 19.507200 4.876799
v -4.876800 19.507200 3.251199
v 4.876800 19.507200 -0.000001
v 4.876800 19.507200 -1.625601
v -4.876800 19.507200 1.625599
v -4.876800 19.507200 -0.000001
v 26.009600 0.812800 3.251200
v 26.822399 0.812800 3.251200
v 26.009600 0.812800 -3.251200
v 26.822399 -0.000000 -3.251200
v 26.009600 -0.000000 -3.251200
v 26.822399 0.812800 -3.251200
v 26.822399 0.000000 3.251200
v 26.009600 0.000000 3.251200
v 39.014400 0.812800 3.251200
v 39.827198 0.812800 3.251200
v 39.014400 0.812800 -3.251200
v 39.827198 -0.000000 -3.251200
v 39.014400 -0.000000 -3.251200
v 39.827198 0.812800 -3.251200
v 39.827198 0.000000 3.251200
v 39.014400 0.000000 3.251200
v 52.019199 0.812800 3.251200
v 52.832001 0.812800 3.251200
v 52.019199 0.812800 -3.251200
v 52.832001 -0.000000 -3.251200
v 52.019199 -0.000000 -3.251200
v 52.832001 0.812800 -3.251200
v 52.832001 0.000000 3.251200
v 52.019199 0.000000 3.251200
v 78.028801 2.438400 3.251200
v 78.841599 2.438400 3.251200
v 78.028801 2.438400 -3.251200
v 78.841599 1.625600 -3.251200
v 78.028801 1.625600 -3.251200
v 78.841599 2.438400 -3.251200
v 78.841599 1.625600 3.251200
v 78.028801 1.625600 3.251200
v 91.033600 2.438400 3.251200
v 91.846397 2.438400 3.251200
v 91.033600 2.438400 -3.251200
v 91.846397 1.625600 -3.251200
v 91.033600 1.625600 -3.251200
v 91.846397 2.438400 -3.251200
v 91.846397 1.625600 3.251200
v 91.033600 1.625600 3.251200
v 104.038399 2.438400 3.251200
v 104.851196 2.438400 3.251200
v 104.038399 2.438400 -3.251200
v 104.851196 1.625600 -3.251200
v 104.038399 1.625600 -3.251200
v 104.851196 2.438400 -3.251200
v 104.851196 1.625600 3.251200
v 104.038399 1.625600 3.251200
vn -0.0000 1.0000 -0.0000
vn -0.0000 -1.0000 -0.0000
vn -1.0000 -0.0000 -0.0000
vn 1.0000 -0.0000 -0.0000
vn -0.0000 -0.0000 -1.0000
vn -0.0000 -0.0000 1.0000
vn -0.1644 -0.0000 -0.9864
vn 0.1644 -0.0000 0.9864
vt 0.000000 0.000000
vt 1.000000 0.000000
vt 1.000000 1.000000
vt 0.000000 1.000000
vt 1.000000 16.000000
vt 0.000000 16.000000
vt 0.000000 17.000000
vt 1.000000 17.000000
vt -3.000000 1.000000
vt -3.000000 2.000000
vt 3.000000 3.000000
vt 3.000000 2.000000
vt -4.000000 -3.000000
vt 4.000000 -3.000000
vt 4.000000 -1.000000
vt 4.000000 3.000000
vt 4.000000 5.000000
vt -4.000000 5.000000
vt -4.000000 6.000000
vt -4.000000 1.000000
vt 4.000000 1.000000
vt 4.000000 6.000000
vt 4.000000 4.000000
vt 80.000000 4.000000
vt 80.000000 1.000000
vt -3.000000 6.000000
vt -3.000000 5.000000
vt -3.000000 4.000000
vt 2.000000 1.000000
vt 2.000000 4.000000
vt -2.000000 4.000000
vt -2.000000 1.000000
vt 80.000000 3.000000
vt 80.000000 -1.000000
vt -3.000000 0.000000
vt -3.000000 -1.000000
vt -3.000000 -2.000000
vt 3.000000 -2.000000
vt 3.000000 0.000000
vt 3.000000 1.000000
vt 3.000000 4.000000
vt 3.000000 6.000000
vt 2.000000 6.000000
vt 2.000000 13.000000
vt 3.000000 13.000000
vt 1.000000 6.000000
vt 1.000000 13.000000
vt -3.000000 13.000000
vt -1.000000 6.000000
vt -1.000000 13.000000
vt -2.000000 6.000000
vt -2.000000 13.000000
vt 0.000000 6.000000
vt 0.000000 13.000000
vt 16.000000 -1.000000
vt 16.500000 -1.000000
vt 16.500000 3.000000
vt 16.000000 3.000000
vt -2.000000 1.500000
vt 2.000000 1.500000
vt 16.500000 1.000000
vt 16.000000 1.000000
vt 16.000000 1.500000
vt 16.500000 1.500000
s 1
usemtl Material
f 1/1/1 2/2/1 6/3/1 3/4/1
f 5/4/2 4/3/2 7/2/2 8/1/2
f 5/5/3 8/6/3 1/7/3 3/8/3
f 6/8/4 2/7/4 7/6/4 4/5/4
f 4/5/5 5/6/5 3/7/5 6/8/5
f 2/8/6 1/7/6 8/6/6 7/5/6
f 33/9/2 30/10/2 31/11/2 32/12/2
f 16/13/1 15/14/1 20/15/1 17/16/1 12/17/1 13/18/1
f 9/19/4 16/20/4 13/21/4 11/22/4
f 20/21/5 18/23/5 21/24/5 24/25/5
f 14/22/6 25/26/6 11/19/6 13/20/6 12/21/6
f 10/22/5 15/21/5 16/20/5 9/19/5
f 11/18/2 25/27/2 27/28/2 30/10/2
f 14/22/3 12/21/3 17/29/3 19/30/3 18/31/3 20/32/3 15/20/3 10/19/3
f 18/15/2 19/16/2 22/33/2 21/34/2
f 19/23/6 17/21/6 23/25/6 22/24/6
f 17/16/1 20/15/1 24/34/1 23/33/1
f 30/10/2 33/9/2 34/35/2 37/36/2 29/37/2 28/38/2 36/39/2 35/40/2 32/12/2 31/11/2 26/41/2 27/28/2 25/27/2 14/17/2 10/14/2 9/13/2 11/18/2
f 26/42/3 31/43/3 41/44/3 40/45/3
f 37/36/2 34/35/2 35/40/2 36/39/2
f 30/46/4 27/42/4 38/45/4 39/47/4
f 27/26/6 26/42/6 40/45/6 38/48/6
f 31/42/7 30/26/7 39/48/7 41/45/7
f 36/49/3 28/26/3 42/48/3 43/50/3
f 28/42/5 29/26/5 44/48/5 42/45/5
f 29/26/4 37/51/4 45/52/4 44/48/4
f 37/26/8 36/42/8 43/45/8 45/48/8
f 32/46/3 35/53/3 46/54/3 47/47/3
f 35/42/7 34/26/7 48/48/7 46/45/7
f 34/49/4 33/53/4 49/54/4 48/50/4
f 33/26/8 32/42/8 47/45/8 49/48/8
f 50/55/1 51/56/1 55/57/1 52/58/1
f 54/58/2 53/57/2 56/56/2 57/55/2
f 54/29/3 57/32/3 50/59/3 52/60/3
f 55/60/4 51/59/4 56/32/4 53/29/4
f 53/61/5 54/62/5 52/63/5 55/64/5
f 51/64/6 50/63/6 57/62/6 56/61/6
f 58/55/1 59/56/1 63/57/1 60/58/1
f 62/58/2 61/57/2 64/56/2 65/55/2
f 62/29/3 65/32/3 58/59/3 60/60/3
f 63/60/4 59/59/4 64/32/4 61/29/4
f 61/61/5 62/62/5 60/63/5 63/64/5
f 59/64/6 58/63/6 65/62/6 64/61/6
f 66/55/1 67/56/1 71/57/1 68/58/1
f 70/58/2 69/57/2 72/56/2 73/55/2
f 70/29/3 73/32/3 66/59/3 68/60/3
f 71/60/4 67/59/4 72/32/4 69/29/4
f 69/61/5 70/62/5 68/63/5 71/64/5
f 67/64/6 66/63/6 73/62/6 72/61/6
f 74/55/1 75/56/1 79/57/1 76/58/1
f 78/58/2 77/57/2 80/56/2 81/55/2
f 78/29/3 81/32/3 74/59/3 76/60/3
f 79/60/4 75/59/4 80/32/4 77/29/4
f 77/61/5 78/62/5 76/63/5 79/64/5
f 75/64/6 74/63/6 81/62/6 80/61/6
f 82/55/1 83/56/1 87/57/1 84/58/1
f 86/58/2 85/57/2 88/56/2 89/55/2
f 86/29/3 89/32/3 82/59/3 84/60/3
f 87/60/4 83/59/4 88/32/4 85/29/4
f 85/61/5 86/62/5 84/63/5 87/64/5
f 83/64/6 82/63/6 89/62/6 88/61/6
f 90/55/1 91/56/1 95/57/1 92/58/1
f 94/58/2 93/57/2 96/56/2 97/55/2
f 94/29/3 97/32/3 90/59/3 92/60/3
f 95/60/4 91/59/4 96/32/4 93/29/4
f 93/61/5 94/62/5 92/63/5 95/64/5
f 91/64/6 90/63/6 97/62/6 96/61/6
