# Blender 4.5.1 LTS
# www.blender.org
mtllib weapon.mtl
o Cube
v 0.010257 0.018750 -0.098580
v 0.010257 0.045360 -0.098580
v 0.010257 0.018750 0.019300
v 0.010257 0.045360 0.019300
v -0.010257 0.018750 -0.098580
v -0.010257 0.045360 -0.098580
v -0.010257 0.018750 0.019300
v -0.010257 0.045360 0.019300
v 0.010257 0.018750 0.006610
v 0.010257 0.045360 0.006610
v -0.010257 0.018750 0.006610
v -0.010257 0.045360 0.006610
v 0.010257 0.018750 -0.019110
v -0.010257 0.045360 -0.019110
v 0.010257 0.045360 -0.019110
v -0.010257 0.018750 -0.019110
v 0.010257 -0.025000 0.012860
v -0.010257 -0.025000 0.012860
v 0.010257 -0.025000 -0.012860
v -0.010257 -0.025000 -0.012860
vn 1.0000 -0.0000 -0.0000
vn -0.0000 -0.0000 1.0000
vn -1.0000 -0.0000 -0.0000
vn -0.0000 -0.0000 -1.0000
vn -0.0000 -1.0000 -0.0000
vn -0.0000 1.0000 -0.0000
vn -0.0000 0.1414 0.9899
vn -0.0000 -0.1414 -0.9899
vt 0.000001 1.938487
vt 1.330567 0.000000
vt 1.330567 1.938487
vt 5.974796 0.000000
vt 6.503702 1.330566
vt 5.974796 1.330566
vt 2.458492 5.400380
vt 3.789059 -0.000000
vt 3.789059 5.400380
vt 6.503702 2.661132
vt 5.974796 2.661132
vt 5.445890 5.400380
vt 5.974796 5.400381
vt 4.916984 5.400380
vt 5.445890 0.000000
vt 5.445890 5.400381
vt 4.916984 9.999999
vt 5.445890 8.061512
vt 5.445890 9.999999
vt 5.445890 10.000000
vt 5.974796 8.061513
vt 5.974796 10.000000
vt 2.458492 9.999999
vt 3.789058 8.061512
vt 3.789058 9.999999
vt 0.000001 4.599620
vt 1.330567 4.599619
vt 0.000000 9.999999
vt 1.330566 9.999999
vt 4.916984 8.061512
vt 2.458492 4.599619
vt 2.458492 8.061512
vt 5.445890 8.061513
vt 5.974796 3.789058
vt 6.503702 3.789058
vt 5.974796 4.916984
vt 0.000001 0.000000
vt 6.503702 0.000000
vt 2.458493 -0.000000
vt 4.916984 0.000000
vt 2.458492 1.938488
vt 6.503702 4.916984
s 1
usemtl Material.001
f 10/1/1 3/2/1 9/3/1
f 4/4/2 7/5/2 3/6/2
f 14/7/3 5/8/3 16/9/3
f 6/6/4 1/10/4 5/11/4
f 16/12/5 1/4/5 13/13/5
f 15/14/6 6/15/6 14/16/6
f 4/17/6 12/18/6 8/19/6
f 7/20/5 9/21/5 3/22/5
f 8/23/3 11/24/3 7/25/3
f 15/26/1 9/3/1 13/27/1
f 2/28/1 13/27/1 1/29/1
f 10/30/6 14/16/6 12/18/6
f 9/3/1 19/31/1 13/27/1
f 12/32/3 16/9/3 11/24/3
f 18/33/5 19/13/5 17/21/5
f 11/24/3 20/14/3 18/30/3
f 11/10/7 17/34/7 9/11/7
f 13/35/8 20/36/8 16/34/8
f 10/1/1 4/37/1 3/2/1
f 4/4/2 8/38/2 7/5/2
f 14/7/3 6/39/3 5/8/3
f 6/6/4 2/5/4 1/10/4
f 16/12/5 5/15/5 1/4/5
f 15/14/6 2/40/6 6/15/6
f 4/17/6 10/30/6 12/18/6
f 7/20/5 11/33/5 9/21/5
f 8/23/3 12/32/3 11/24/3
f 15/26/1 10/1/1 9/3/1
f 2/28/1 15/26/1 13/27/1
f 10/30/6 15/14/6 14/16/6
f 9/3/1 17/41/1 19/31/1
f 12/32/3 14/7/3 16/9/3
f 18/33/5 20/16/5 19/13/5
f 11/24/3 16/9/3 20/14/3
f 11/10/7 18/35/7 17/34/7
f 13/35/8 19/42/8 20/36/8
