# Blender 4.4.3
# www.blender.org
mtllib weapon.mtl
o Cube
v 0.016412 0.030000 -0.467728
v 0.016412 0.112576 -0.467728
v 0.016412 0.030000 0.152880
v 0.016412 0.112576 0.152880
v -0.016412 0.030000 -0.467728
v -0.016412 0.112576 -0.467728
v -0.016412 0.030000 0.152880
v -0.016412 0.112576 0.152880
v 0.016412 0.030000 0.032576
v 0.016412 0.112576 0.032576
v -0.016412 0.030000 0.032576
v -0.016412 0.112576 0.032576
v 0.016412 0.030000 -0.132576
v -0.016412 0.112576 -0.132576
v 0.016412 0.112576 -0.132576
v -0.016412 0.030000 -0.132576
v 0.016412 -0.040000 0.032576
v -0.016412 -0.040000 0.032576
v 0.016412 -0.040000 -0.132576
v -0.016412 -0.040000 -0.132576
vn 1.0000 -0.0000 -0.0000
vn -0.0000 -0.0000 1.0000
vn -1.0000 -0.0000 -0.0000
vn -0.0000 -0.0000 -1.0000
vn -0.0000 -1.0000 -0.0000
vn -0.0000 1.0000 -0.0000
vt 1.330567 1.938487
vt 0.000001 1.938487
vt 0.000001 0.000000
vt 1.330567 0.000000
vt 5.974796 1.330566
vt 5.974796 0.000000
vt 6.503702 0.000000
vt 6.503702 1.330566
vt 3.789059 5.400380
vt 2.458492 5.400380
vt 2.458493 -0.000000
vt 3.789059 -0.000000
vt 5.974796 2.661132
vt 6.503702 2.661132
vt 5.974796 5.400381
vt 5.445890 5.400380
vt 5.445890 0.000000
vt 5.445890 5.400381
vt 4.916984 5.400380
vt 4.916984 0.000000
vt 5.445890 0.000000
vt 5.445890 9.999999
vt 4.916984 9.999999
vt 4.916984 8.061512
vt 5.445890 8.061512
vt 5.974796 10.000000
vt 5.445890 10.000000
vt 5.445890 8.061513
vt 5.974796 8.061513
vt 3.789058 9.999999
vt 2.458492 9.999999
vt 2.458492 8.061512
vt 3.789058 8.061512
vt 1.330567 4.599619
vt 0.000001 4.599620
vt 1.330566 9.999999
vt 0.000000 9.999999
vt 2.458492 1.938488
vt 2.458492 4.599619
vt 5.445890 5.400381
vt 5.974796 5.400381
vt 4.916984 8.061512
vt 6.503702 3.789058
vt 5.974796 3.789058
vt 5.974796 3.789058
vt 6.503702 3.789058
vt 6.503702 4.916984
vt 5.974796 4.916984
s 0
usemtl Material.001
f 9/1/1 10/2/1 4/3/1 3/4/1
f 3/5/2 4/6/2 8/7/2 7/8/2
f 16/9/3 14/10/3 6/11/3 5/12/3
f 5/13/4 6/5/4 2/8/4 1/14/4
f 13/15/5 16/16/5 5/17/5 1/6/5
f 14/18/6 15/19/6 2/20/6 6/21/6
f 8/22/6 4/23/6 10/24/6 12/25/6
f 3/26/5 7/27/5 11/28/5 9/29/5
f 7/30/3 8/31/3 12/32/3 11/33/3
f 13/34/1 15/35/1 10/2/1 9/1/1
f 1/36/1 2/37/1 15/35/1 13/34/1
f 12/25/6 10/24/6 15/19/6 14/18/6
f 13/34/1 9/1/1 17/38/1 19/39/1
f 11/33/3 12/32/3 14/10/3 16/9/3
f 17/29/5 18/28/5 20/40/5 19/41/5
f 11/33/3 16/9/3 20/19/3 18/42/3
f 9/13/2 11/14/2 18/43/2 17/44/2
f 16/45/4 13/46/4 19/47/4 20/48/4
